General
Complete name                    : Explorers.mkv
Format                           : Matroska
File size                        : 2.06 GiB
Duration                         : 1h 42mn
Overall bit rate                 : 2 882 Kbps


Video
ID                               : 1
Format                           : AVC
Duration                         : 1h 42mn
Bit rate                         : 1 865 Kbps
Width                            : 720 pixels
Height                           : 576 pixels
Display aspect ratio             : 16:9
Frame rate                       : 25.000 fps
Resolution                       : 8 bits
Colorimetry                      : 4:2:0
Scan type                        : Progressive
Bits/(Pixel*Frame)               : 0.180
Stream size                      : 1.33 GiB (65%)
Writing library                  : x264 core 79


Audio #1
ID                               : 2
Format                           : AC-3
Format/Info                      : Audio Coding 3
Codec ID                         : A_AC3
Duration                         : 1h 42mn
Bit rate mode                    : Constant
Bit rate                         : 448 Kbps
Channel(s)                       : 6 channels
Channel positions                : Front: L C R, Surround: L R, LFE
Sampling rate                    : 48.0 KHz
Stream size                      : 327 MiB (16%)
Language                         : English

Audio #2
ID                               : 3
Format                           : MPEG Audio
Format version                   : Version 1
Format profile                   : Layer 3
Mode                             : Joint stereo / MS Stereo
Codec ID                         : A_MPEG/L3
Codec ID/Hint                    : MP3
Duration                         : 1h 42mn
Bit rate mode                    : Constant
Bit rate                         : 128 Kbps
Channel(s)                       : 2 channels
Sampling rate                    : 48.0 KHz
Stream size                      : 93.5 MiB (4%)
Writing library                  : LAME3.98
Language                         : German

Audio #3
ID                               : 4
Format                           : MPEG Audio
Format version                   : Version 1
Format profile                   : Layer 3
Mode                             : Joint stereo / MS Stereo
Codec ID                         : A_MPEG/L3
Codec ID/Hint                    : MP3
Duration                         : 1h 42mn
Bit rate mode                    : Constant
Bit rate                         : 128 Kbps
Channel(s)                       : 2 channels
Sampling rate                    : 48.0 KHz
Stream size                      : 93.5 MiB (4%)
Writing library                  : LAME3.98
Language                         : French

Audio #4
ID                               : 5
Format                           : MPEG Audio
Format version                   : Version 1
Format profile                   : Layer 3
Mode                             : Joint stereo / MS Stereo
Codec ID                         : A_MPEG/L3
Codec ID/Hint                    : MP3
Duration                         : 1h 42mn
Bit rate mode                    : Constant
Bit rate                         : 128 Kbps
Channel(s)                       : 2 channels
Sampling rate                    : 48.0 KHz
Stream size                      : 93.5 MiB (4%)
Writing library                  : LAME3.98
Language                         : Spanish

Audio #5
ID                               : 6
Format                           : MPEG Audio
Format version                   : Version 1
Format profile                   : Layer 3
Mode                             : Joint stereo / MS Stereo
Codec ID                         : A_MPEG/L3
Codec ID/Hint                    : MP3
Duration                         : 1h 42mn
Bit rate mode                    : Constant
Bit rate                         : 128 Kbps
Channel(s)                       : 2 channels
Sampling rate                    : 48.0 KHz
Stream size                      : 93.5 MiB (4%)
Writing library                  : LAME3.98
Language                         : Italian

Text #1
Language                         : English

Text #2
Language                         : English

Text #3
Language                         : Slovenian

Text #4
Language                         : French

Text #5
Language                         : German

Text #6
Language                         : Swedish

Text #7
Language                         : Danish

Text #8
Language                         : Norwegian

Text #9
Language                         : Finnish

Text #10
Language                         : Dutch

Text #11
Language                         : Bulgarian

Text #12
Language                         : Icelandic

Text #13
Language                         : Portuguese

Text #14
Language                         : xxxx????

Text #15
Language                         : Greek

Text #16
Language                         : Croatian

Text #17
Language                         : Arabic

Text #18
Language                         : Turkish

Text #19
Language                         : Polish

Text #20
Language                         : Italian

Text #21
Language                         : Spanish

Text #22
Language                         : Romanian

Text #23
Language                         : Czech

Text #24
Language                         : Hungarian

Text #25
Language                         : Serbian

Text #26
Language                         : French

Text #27
Language                         : Italian

Text #28
Language                         : German

Text #29
Language                         : Spanish


